<mxfile host="app.diagrams.net" agent="Mozilla/5.0 (Windows NT 10.0; Win64; x64; rv:131.0) Gecko/20100101 Firefox/131.0" version="24.8.3">
  <diagram id="C5RBs43oDa-KdzZeNtuy" name="Page-1">
    <mxGraphModel dx="1434" dy="796" grid="1" gridSize="10" guides="1" tooltips="1" connect="1" arrows="1" fold="1" page="1" pageScale="1" pageWidth="827" pageHeight="1169" math="0" shadow="0">
      <root>
        <mxCell id="WIyWlLk6GJQsqaUBKTNV-0" />
        <mxCell id="WIyWlLk6GJQsqaUBKTNV-1" parent="WIyWlLk6GJQsqaUBKTNV-0" />
        <mxCell id="4rrUA7GioXYKfhnBA-oQ-4" value="User" style="swimlane;fontStyle=0;childLayout=stackLayout;horizontal=1;startSize=30;horizontalStack=0;resizeParent=1;resizeParentMax=0;resizeLast=0;collapsible=1;marginBottom=0;whiteSpace=wrap;html=1;" vertex="1" parent="WIyWlLk6GJQsqaUBKTNV-1">
          <mxGeometry x="50" y="125" width="140" height="240" as="geometry" />
        </mxCell>
        <mxCell id="4rrUA7GioXYKfhnBA-oQ-5" value="Name : string" style="text;strokeColor=none;fillColor=none;align=left;verticalAlign=middle;spacingLeft=4;spacingRight=4;overflow=hidden;points=[[0,0.5],[1,0.5]];portConstraint=eastwest;rotatable=0;whiteSpace=wrap;html=1;" vertex="1" parent="4rrUA7GioXYKfhnBA-oQ-4">
          <mxGeometry y="30" width="140" height="30" as="geometry" />
        </mxCell>
        <mxCell id="4rrUA7GioXYKfhnBA-oQ-45" value="Surname : string" style="text;strokeColor=none;fillColor=none;align=left;verticalAlign=middle;spacingLeft=4;spacingRight=4;overflow=hidden;points=[[0,0.5],[1,0.5]];portConstraint=eastwest;rotatable=0;whiteSpace=wrap;html=1;" vertex="1" parent="4rrUA7GioXYKfhnBA-oQ-4">
          <mxGeometry y="60" width="140" height="30" as="geometry" />
        </mxCell>
        <mxCell id="4rrUA7GioXYKfhnBA-oQ-6" value="Mail : string" style="text;strokeColor=none;fillColor=none;align=left;verticalAlign=middle;spacingLeft=4;spacingRight=4;overflow=hidden;points=[[0,0.5],[1,0.5]];portConstraint=eastwest;rotatable=0;whiteSpace=wrap;html=1;" vertex="1" parent="4rrUA7GioXYKfhnBA-oQ-4">
          <mxGeometry y="90" width="140" height="30" as="geometry" />
        </mxCell>
        <mxCell id="4rrUA7GioXYKfhnBA-oQ-7" value="&lt;div&gt;Password : string&lt;/div&gt;" style="text;strokeColor=none;fillColor=none;align=left;verticalAlign=middle;spacingLeft=4;spacingRight=4;overflow=hidden;points=[[0,0.5],[1,0.5]];portConstraint=eastwest;rotatable=0;whiteSpace=wrap;html=1;" vertex="1" parent="4rrUA7GioXYKfhnBA-oQ-4">
          <mxGeometry y="120" width="140" height="30" as="geometry" />
        </mxCell>
        <mxCell id="4rrUA7GioXYKfhnBA-oQ-8" value="&lt;div&gt;Address : string&lt;/div&gt;" style="text;strokeColor=none;fillColor=none;align=left;verticalAlign=middle;spacingLeft=4;spacingRight=4;overflow=hidden;points=[[0,0.5],[1,0.5]];portConstraint=eastwest;rotatable=0;whiteSpace=wrap;html=1;" vertex="1" parent="4rrUA7GioXYKfhnBA-oQ-4">
          <mxGeometry y="150" width="140" height="30" as="geometry" />
        </mxCell>
        <mxCell id="4rrUA7GioXYKfhnBA-oQ-50" value="Phone : int" style="text;strokeColor=none;fillColor=none;align=left;verticalAlign=middle;spacingLeft=4;spacingRight=4;overflow=hidden;points=[[0,0.5],[1,0.5]];portConstraint=eastwest;rotatable=0;whiteSpace=wrap;html=1;" vertex="1" parent="4rrUA7GioXYKfhnBA-oQ-4">
          <mxGeometry y="180" width="140" height="30" as="geometry" />
        </mxCell>
        <mxCell id="4rrUA7GioXYKfhnBA-oQ-9" value="&lt;div&gt;ID_user : int&lt;/div&gt;" style="text;strokeColor=none;fillColor=none;align=left;verticalAlign=middle;spacingLeft=4;spacingRight=4;overflow=hidden;points=[[0,0.5],[1,0.5]];portConstraint=eastwest;rotatable=0;whiteSpace=wrap;html=1;" vertex="1" parent="4rrUA7GioXYKfhnBA-oQ-4">
          <mxGeometry y="210" width="140" height="30" as="geometry" />
        </mxCell>
        <mxCell id="4rrUA7GioXYKfhnBA-oQ-10" value="Book" style="swimlane;fontStyle=0;childLayout=stackLayout;horizontal=1;startSize=30;horizontalStack=0;resizeParent=1;resizeParentMax=0;resizeLast=0;collapsible=1;marginBottom=0;whiteSpace=wrap;html=1;" vertex="1" parent="WIyWlLk6GJQsqaUBKTNV-1">
          <mxGeometry x="540" y="140" width="140" height="210" as="geometry" />
        </mxCell>
        <mxCell id="4rrUA7GioXYKfhnBA-oQ-11" value="Name : string" style="text;strokeColor=none;fillColor=none;align=left;verticalAlign=middle;spacingLeft=4;spacingRight=4;overflow=hidden;points=[[0,0.5],[1,0.5]];portConstraint=eastwest;rotatable=0;whiteSpace=wrap;html=1;" vertex="1" parent="4rrUA7GioXYKfhnBA-oQ-10">
          <mxGeometry y="30" width="140" height="30" as="geometry" />
        </mxCell>
        <mxCell id="4rrUA7GioXYKfhnBA-oQ-12" value="Resume : text" style="text;strokeColor=none;fillColor=none;align=left;verticalAlign=middle;spacingLeft=4;spacingRight=4;overflow=hidden;points=[[0,0.5],[1,0.5]];portConstraint=eastwest;rotatable=0;whiteSpace=wrap;html=1;" vertex="1" parent="4rrUA7GioXYKfhnBA-oQ-10">
          <mxGeometry y="60" width="140" height="30" as="geometry" />
        </mxCell>
        <mxCell id="4rrUA7GioXYKfhnBA-oQ-13" value="Price : int" style="text;strokeColor=none;fillColor=none;align=left;verticalAlign=middle;spacingLeft=4;spacingRight=4;overflow=hidden;points=[[0,0.5],[1,0.5]];portConstraint=eastwest;rotatable=0;whiteSpace=wrap;html=1;" vertex="1" parent="4rrUA7GioXYKfhnBA-oQ-10">
          <mxGeometry y="90" width="140" height="30" as="geometry" />
        </mxCell>
        <mxCell id="4rrUA7GioXYKfhnBA-oQ-14" value="ISNB : int" style="text;strokeColor=none;fillColor=none;align=left;verticalAlign=middle;spacingLeft=4;spacingRight=4;overflow=hidden;points=[[0,0.5],[1,0.5]];portConstraint=eastwest;rotatable=0;whiteSpace=wrap;html=1;" vertex="1" parent="4rrUA7GioXYKfhnBA-oQ-10">
          <mxGeometry y="120" width="140" height="30" as="geometry" />
        </mxCell>
        <mxCell id="4rrUA7GioXYKfhnBA-oQ-44" value="Stock : int" style="text;strokeColor=none;fillColor=none;align=left;verticalAlign=middle;spacingLeft=4;spacingRight=4;overflow=hidden;points=[[0,0.5],[1,0.5]];portConstraint=eastwest;rotatable=0;whiteSpace=wrap;html=1;" vertex="1" parent="4rrUA7GioXYKfhnBA-oQ-10">
          <mxGeometry y="150" width="140" height="30" as="geometry" />
        </mxCell>
        <mxCell id="4rrUA7GioXYKfhnBA-oQ-51" value="ID_book : int" style="text;strokeColor=none;fillColor=none;align=left;verticalAlign=middle;spacingLeft=4;spacingRight=4;overflow=hidden;points=[[0,0.5],[1,0.5]];portConstraint=eastwest;rotatable=0;whiteSpace=wrap;html=1;" vertex="1" parent="4rrUA7GioXYKfhnBA-oQ-10">
          <mxGeometry y="180" width="140" height="30" as="geometry" />
        </mxCell>
        <mxCell id="4rrUA7GioXYKfhnBA-oQ-16" value="Category" style="swimlane;fontStyle=0;childLayout=stackLayout;horizontal=1;startSize=30;horizontalStack=0;resizeParent=1;resizeParentMax=0;resizeLast=0;collapsible=1;marginBottom=0;whiteSpace=wrap;html=1;" vertex="1" parent="WIyWlLk6GJQsqaUBKTNV-1">
          <mxGeometry x="350" y="390" width="140" height="90" as="geometry" />
        </mxCell>
        <mxCell id="4rrUA7GioXYKfhnBA-oQ-17" value="Name : string" style="text;strokeColor=none;fillColor=none;align=left;verticalAlign=middle;spacingLeft=4;spacingRight=4;overflow=hidden;points=[[0,0.5],[1,0.5]];portConstraint=eastwest;rotatable=0;whiteSpace=wrap;html=1;" vertex="1" parent="4rrUA7GioXYKfhnBA-oQ-16">
          <mxGeometry y="30" width="140" height="30" as="geometry" />
        </mxCell>
        <mxCell id="4rrUA7GioXYKfhnBA-oQ-18" value="ID_Category : int" style="text;strokeColor=none;fillColor=none;align=left;verticalAlign=middle;spacingLeft=4;spacingRight=4;overflow=hidden;points=[[0,0.5],[1,0.5]];portConstraint=eastwest;rotatable=0;whiteSpace=wrap;html=1;" vertex="1" parent="4rrUA7GioXYKfhnBA-oQ-16">
          <mxGeometry y="60" width="140" height="30" as="geometry" />
        </mxCell>
        <mxCell id="4rrUA7GioXYKfhnBA-oQ-23" value="Command" style="swimlane;fontStyle=0;childLayout=stackLayout;horizontal=1;startSize=30;horizontalStack=0;resizeParent=1;resizeParentMax=0;resizeLast=0;collapsible=1;marginBottom=0;whiteSpace=wrap;html=1;" vertex="1" parent="WIyWlLk6GJQsqaUBKTNV-1">
          <mxGeometry x="280" y="200" width="140" height="90" as="geometry" />
        </mxCell>
        <mxCell id="4rrUA7GioXYKfhnBA-oQ-24" value="Datetime : datetime" style="text;strokeColor=none;fillColor=none;align=left;verticalAlign=middle;spacingLeft=4;spacingRight=4;overflow=hidden;points=[[0,0.5],[1,0.5]];portConstraint=eastwest;rotatable=0;whiteSpace=wrap;html=1;" vertex="1" parent="4rrUA7GioXYKfhnBA-oQ-23">
          <mxGeometry y="30" width="140" height="30" as="geometry" />
        </mxCell>
        <mxCell id="4rrUA7GioXYKfhnBA-oQ-25" value="ID_Command : int" style="text;strokeColor=none;fillColor=none;align=left;verticalAlign=middle;spacingLeft=4;spacingRight=4;overflow=hidden;points=[[0,0.5],[1,0.5]];portConstraint=eastwest;rotatable=0;whiteSpace=wrap;html=1;" vertex="1" parent="4rrUA7GioXYKfhnBA-oQ-23">
          <mxGeometry y="60" width="140" height="30" as="geometry" />
        </mxCell>
        <mxCell id="4rrUA7GioXYKfhnBA-oQ-31" value="" style="endArrow=none;html=1;rounded=0;fontSize=12;startSize=8;endSize=8;curved=1;endFill=0;" edge="1" parent="WIyWlLk6GJQsqaUBKTNV-1" source="4rrUA7GioXYKfhnBA-oQ-4" target="4rrUA7GioXYKfhnBA-oQ-23">
          <mxGeometry relative="1" as="geometry">
            <mxPoint x="330" y="410" as="sourcePoint" />
            <mxPoint x="490" y="410" as="targetPoint" />
            <Array as="points" />
          </mxGeometry>
        </mxCell>
        <mxCell id="4rrUA7GioXYKfhnBA-oQ-33" value="0-n" style="edgeLabel;resizable=0;html=1;fontSize=12;;align=left;verticalAlign=bottom;" connectable="0" vertex="1" parent="4rrUA7GioXYKfhnBA-oQ-31">
          <mxGeometry x="-1" relative="1" as="geometry" />
        </mxCell>
        <mxCell id="4rrUA7GioXYKfhnBA-oQ-34" value="1-1" style="edgeLabel;resizable=0;html=1;fontSize=12;;align=right;verticalAlign=bottom;" connectable="0" vertex="1" parent="4rrUA7GioXYKfhnBA-oQ-31">
          <mxGeometry x="1" relative="1" as="geometry" />
        </mxCell>
        <mxCell id="4rrUA7GioXYKfhnBA-oQ-35" value="" style="endArrow=none;html=1;rounded=0;fontSize=12;startSize=8;endSize=8;curved=1;endFill=0;" edge="1" parent="WIyWlLk6GJQsqaUBKTNV-1" source="4rrUA7GioXYKfhnBA-oQ-23" target="4rrUA7GioXYKfhnBA-oQ-10">
          <mxGeometry relative="1" as="geometry">
            <mxPoint x="330" y="410" as="sourcePoint" />
            <mxPoint x="490" y="410" as="targetPoint" />
          </mxGeometry>
        </mxCell>
        <mxCell id="4rrUA7GioXYKfhnBA-oQ-37" value="1-n" style="edgeLabel;resizable=0;html=1;fontSize=12;;align=left;verticalAlign=bottom;" connectable="0" vertex="1" parent="4rrUA7GioXYKfhnBA-oQ-35">
          <mxGeometry x="-1" relative="1" as="geometry" />
        </mxCell>
        <mxCell id="4rrUA7GioXYKfhnBA-oQ-38" value="0-n" style="edgeLabel;resizable=0;html=1;fontSize=12;;align=right;verticalAlign=bottom;" connectable="0" vertex="1" parent="4rrUA7GioXYKfhnBA-oQ-35">
          <mxGeometry x="1" relative="1" as="geometry" />
        </mxCell>
        <mxCell id="4rrUA7GioXYKfhnBA-oQ-39" value="" style="endArrow=none;html=1;rounded=0;fontSize=12;startSize=8;endSize=8;curved=1;endFill=0;" edge="1" parent="WIyWlLk6GJQsqaUBKTNV-1" source="4rrUA7GioXYKfhnBA-oQ-10" target="4rrUA7GioXYKfhnBA-oQ-16">
          <mxGeometry relative="1" as="geometry">
            <mxPoint x="330" y="410" as="sourcePoint" />
            <mxPoint x="490" y="410" as="targetPoint" />
          </mxGeometry>
        </mxCell>
        <mxCell id="4rrUA7GioXYKfhnBA-oQ-41" value="1-1" style="edgeLabel;resizable=0;html=1;fontSize=12;;align=left;verticalAlign=bottom;" connectable="0" vertex="1" parent="4rrUA7GioXYKfhnBA-oQ-39">
          <mxGeometry x="-1" relative="1" as="geometry">
            <mxPoint x="-30" y="5" as="offset" />
          </mxGeometry>
        </mxCell>
        <mxCell id="4rrUA7GioXYKfhnBA-oQ-42" value="0-n" style="edgeLabel;resizable=0;html=1;fontSize=12;;align=right;verticalAlign=bottom;" connectable="0" vertex="1" parent="4rrUA7GioXYKfhnBA-oQ-39">
          <mxGeometry x="1" relative="1" as="geometry">
            <mxPoint x="-10" as="offset" />
          </mxGeometry>
        </mxCell>
        <mxCell id="4rrUA7GioXYKfhnBA-oQ-47" value="Author" style="swimlane;fontStyle=0;childLayout=stackLayout;horizontal=1;startSize=30;horizontalStack=0;resizeParent=1;resizeParentMax=0;resizeLast=0;collapsible=1;marginBottom=0;whiteSpace=wrap;html=1;" vertex="1" parent="WIyWlLk6GJQsqaUBKTNV-1">
          <mxGeometry x="540" y="520" width="140" height="90" as="geometry" />
        </mxCell>
        <mxCell id="4rrUA7GioXYKfhnBA-oQ-48" value="Name : string" style="text;strokeColor=none;fillColor=none;align=left;verticalAlign=middle;spacingLeft=4;spacingRight=4;overflow=hidden;points=[[0,0.5],[1,0.5]];portConstraint=eastwest;rotatable=0;whiteSpace=wrap;html=1;" vertex="1" parent="4rrUA7GioXYKfhnBA-oQ-47">
          <mxGeometry y="30" width="140" height="30" as="geometry" />
        </mxCell>
        <mxCell id="4rrUA7GioXYKfhnBA-oQ-49" value="ID_author : int" style="text;strokeColor=none;fillColor=none;align=left;verticalAlign=middle;spacingLeft=4;spacingRight=4;overflow=hidden;points=[[0,0.5],[1,0.5]];portConstraint=eastwest;rotatable=0;whiteSpace=wrap;html=1;" vertex="1" parent="4rrUA7GioXYKfhnBA-oQ-47">
          <mxGeometry y="60" width="140" height="30" as="geometry" />
        </mxCell>
        <mxCell id="4rrUA7GioXYKfhnBA-oQ-52" value="" style="endArrow=none;html=1;rounded=0;fontSize=12;startSize=8;endSize=8;curved=1;endFill=0;" edge="1" parent="WIyWlLk6GJQsqaUBKTNV-1" source="4rrUA7GioXYKfhnBA-oQ-10" target="4rrUA7GioXYKfhnBA-oQ-47">
          <mxGeometry relative="1" as="geometry">
            <mxPoint x="553" y="360" as="sourcePoint" />
            <mxPoint x="509" y="430" as="targetPoint" />
          </mxGeometry>
        </mxCell>
        <mxCell id="4rrUA7GioXYKfhnBA-oQ-53" value="1-n" style="edgeLabel;resizable=0;html=1;fontSize=12;;align=left;verticalAlign=bottom;" connectable="0" vertex="1" parent="4rrUA7GioXYKfhnBA-oQ-52">
          <mxGeometry x="-1" relative="1" as="geometry">
            <mxPoint y="20" as="offset" />
          </mxGeometry>
        </mxCell>
        <mxCell id="4rrUA7GioXYKfhnBA-oQ-54" value="0-n" style="edgeLabel;resizable=0;html=1;fontSize=12;;align=right;verticalAlign=bottom;" connectable="0" vertex="1" parent="4rrUA7GioXYKfhnBA-oQ-52">
          <mxGeometry x="1" relative="1" as="geometry">
            <mxPoint x="-10" as="offset" />
          </mxGeometry>
        </mxCell>
      </root>
    </mxGraphModel>
  </diagram>
</mxfile>
